<svg width="1980" height="1419" viewBox="0 0 1980 1419" fill="none" xmlns="http://www.w3.org/2000/svg">
<path d="M1739.06 375.794C1695.64 201.504 1380.97 134.295 1150.87 171.419C885.716 214.223 796.934 385.266 591.586 368.398C404.199 353.058 382.396 202.68 245.197 199.22C119.109 196.046 -71.2849 317.765 -363.199 821.84" stroke="url(#paint0_linear_43_235)" stroke-width="5" stroke-miterlimit="10"/>
<path d="M-345.449 844.505C-57.0085 347.629 133.241 222.349 260.801 221.181C355.35 220.42 396.731 288.778 474.107 335.399C512.791 359.57 559.31 374.548 609.485 378.986C773.844 393.628 863.904 292.557 1033.86 229.33C1077.17 213.105 1122.01 200.979 1167.45 193.202C1398.28 153.066 1708.43 205.662 1756.12 372.712" stroke="url(#paint1_linear_43_235)" stroke-width="5" stroke-miterlimit="10"/>
<path d="M-327.674 867.093C-42.7023 377.424 147.294 248.625 276.065 243.186C370.723 239.194 413.992 303.708 491.307 347.373C530.79 370.343 577.202 384.786 627.005 389.601C789.082 405.243 879.722 312.76 1050.4 251.172C1093.77 235.444 1138.44 223.332 1183.69 215.028C1415.33 172.46 1720.89 209.834 1772.85 369.653" stroke="url(#paint2_linear_43_235)" stroke-width="5" stroke-miterlimit="10"/>
<path d="M-309.951 889.609C-28.5166 407.239 161.342 274.932 291.469 265.105C386.315 257.933 431.317 318.565 508.687 359.289C548.886 381.055 595.159 394.982 644.554 400.182C804.499 416.802 895.38 332.927 1066.98 272.978C1110.42 257.663 1154.96 245.523 1200.06 236.707C1432.45 191.372 1733.45 213.865 1789.67 366.457" stroke="url(#paint3_linear_43_235)" stroke-width="5" stroke-miterlimit="10"/>
<path d="M-292.226 912.312C-14.2649 437.011 175.311 301.272 306.906 287.04C401.832 276.734 448.756 333.461 526.135 371.16C567.081 391.732 613.297 405.154 662.364 410.722C820.178 428.322 911.414 353.062 1084 294.706C1127.43 279.902 1171.76 267.79 1216.6 258.476C1449.78 210.365 1746.22 218.007 1806.74 363.376" stroke="url(#paint4_linear_43_235)" stroke-width="5" stroke-miterlimit="10"/>
<path d="M-274.672 934.956C-0.0640088 466.732 189.165 324.53 322.332 308.873C417.38 297.611 466.169 348.071 543.503 383.006C585.171 402.342 631.329 415.258 680.053 421.215C835.737 439.797 927.255 373.161 1100.57 316.465C1144.02 302.084 1188.19 289.956 1232.82 280.156C1466.79 229.141 1758.67 222.023 1823.46 360.215" stroke="url(#paint5_linear_43_235)" stroke-width="5" stroke-miterlimit="10"/>
<path d="M-256.791 957.565C14.1662 496.475 203.231 354.019 337.699 330.543C432.699 314.353 483.663 362.841 560.902 394.863C603.248 412.96 649.356 425.382 697.738 431.727C851.293 451.292 943.203 393.231 1117.29 338.187C1160.76 324.265 1204.79 312.141 1249.2 301.86C1483.96 248.062 1771.28 225.961 1840.34 357.043" stroke="url(#paint6_linear_43_235)" stroke-width="5" stroke-miterlimit="10"/>
<path d="M-239.098 980.193C28.2809 526.199 217.137 380.216 353.128 352.539C448.124 333.099 501.212 377.31 578.296 406.645C621.286 423.486 667.361 435.401 715.413 442.102C866.803 462.687 959.11 413.267 1134 359.777C1174.69 347.37 1218.19 334.79 1265.57 323.402C1501.14 266.72 1783.89 229.976 1857.21 353.789" stroke="url(#paint7_linear_43_235)" stroke-width="5" stroke-miterlimit="10"/>
<path d="M-221.43 1002.82C42.5643 555.877 231.047 406.685 368.485 374.22C463.536 351.798 518.785 391.73 595.749 418.314C639.384 433.886 685.454 445.33 733.192 452.453C882.455 474.024 975.077 433.163 1150.82 381.372C1191.73 369.304 1235.11 356.798 1282.08 344.937C1518.15 285.447 1796.49 233.864 1874.08 350.451" stroke="url(#paint8_linear_43_235)" stroke-width="5" stroke-miterlimit="10"/>
<path d="M-203.732 1025.41C56.7653 585.525 244.949 433.077 383.886 396.032C478.956 370.662 536.546 406.16 613.017 430.078C657.24 444.378 703.301 455.361 750.711 462.912C897.884 485.465 990.865 453.224 1167.4 402.921C1208.34 391.219 1251.77 378.703 1298.32 366.401C1535.44 303.859 1809.08 237.534 1890.94 346.953" stroke="url(#paint9_linear_43_235)" stroke-width="5" stroke-miterlimit="10"/>
<path d="M-186.089 1048.04C70.9116 615.146 258.839 459.481 399.154 417.709C494.247 389.418 554.024 420.443 630.311 441.775C675.112 454.758 721.196 465.266 768.292 473.238C913.301 496.788 1006.64 473.14 1184.04 424.624C1225.2 413.322 1268.51 400.787 1314.62 388.078C1552.52 322.516 1821.59 241.474 1907.79 343.689" stroke="url(#paint10_linear_43_235)" stroke-width="5" stroke-miterlimit="10"/>
<path d="M-168.464 1070.67C85.0818 644.771 272.791 485.838 414.596 439.316C509.753 408.124 571.75 434.607 647.704 453.374C691.365 464.148 736.051 474.923 786.012 483.491C928.893 508.004 1022.59 493.018 1200.8 446.109C1242.1 435.186 1285.34 422.626 1331.12 409.492C1569.8 340.902 1834.34 245.119 1924.77 340.177" stroke="url(#paint11_linear_43_235)" stroke-width="5" stroke-miterlimit="10"/>
<path d="M-150.854 1093.29C99.2447 674.456 286.471 512.247 429.917 460.911C525.136 426.781 589.463 448.64 665.051 464.908C709.656 474.514 754.423 484.784 803.65 493.688C944.413 519.291 1038.43 512.827 1217.49 467.546C1258.94 457.034 1302.14 444.441 1347.4 430.878C1586.82 359.195 1846.86 248.701 1941.58 336.598" stroke="url(#paint12_linear_43_235)" stroke-width="5" stroke-miterlimit="10"/>
<path d="M-133.341 1115.93C113.335 703.904 300.55 538.581 445.222 482.453C540.511 445.471 607.16 462.577 682.388 476.408C727.97 484.776 772.781 494.578 821.127 503.874C959.799 530.379 1054.11 532.669 1234.17 488.994C1275.8 478.823 1318.89 466.208 1363.74 452.259C1603.95 377.406 1859.46 252.18 1958.45 332.913" stroke="url(#paint13_linear_43_235)" stroke-width="5" stroke-miterlimit="10"/>
<path d="M-115.669 1138.51C127.446 733.402 314.349 564.955 460.543 503.883C555.939 464.004 624.87 476.327 699.665 487.76C746.224 494.86 791.16 504.244 838.887 513.862C975.361 541.384 1070.1 552.296 1250.83 510.275C1294.38 499.765 1337.53 487.448 1380.1 473.372C1621.03 395.501 1872.18 255.575 1975.32 329.068" stroke="url(#paint14_linear_43_235)" stroke-width="5" stroke-miterlimit="10"/>
<path d="M-98.1352 1161.14C141.534 762.898 328.419 591.133 475.694 525.262C571.199 482.509 642.448 489.975 717.004 499.041C764.537 504.839 809.523 513.817 856.483 523.813C990.874 552.34 1085.94 571.938 1267.42 531.527C1310.96 521.485 1354.03 509.164 1396.36 494.643C1638.09 413.32 1884.66 258.812 1992.22 324.99" stroke="url(#paint15_linear_43_235)" stroke-width="5" stroke-miterlimit="10"/>
<path d="M-80.6323 1183.77C155.554 792.331 342.479 617.461 491.085 546.517C586.63 500.95 660.228 503.42 734.246 510.193C782.753 514.657 827.797 523.323 874.026 533.663C1006.26 563.212 1101.73 591.474 1284.14 552.674C1327.68 543.057 1370.68 530.699 1412.75 515.71C1655.13 431.258 1897.25 261.908 2009.1 321.006" stroke="url(#paint16_linear_43_235)" stroke-width="5" stroke-miterlimit="10"/>
<path d="M-63.8557 1206.39C168.949 820.652 355.628 641.886 505.779 565.711C601.584 517.077 677.404 514.528 751.031 519.097C800.674 522.152 845.68 530.553 891.195 541.306C1021.35 571.92 1117.18 609.098 1300.52 571.807C1344.07 562.57 1387.02 550.133 1428.85 534.647C1672.03 446.608 1909.8 261.874 2025.97 313.962" stroke="url(#paint17_linear_43_235)" stroke-width="5" stroke-miterlimit="10"/>
<path d="M-47.184 1229.02C182.072 848.756 368.949 666.333 520.465 584.94C616.462 533.283 694.505 525.607 767.825 528.036C818.351 529.804 863.615 537.828 908.34 548.978C1036.43 580.793 1132.66 626.837 1316.88 590.98C1360.44 582.126 1403.34 569.607 1444.93 553.619C1688.91 461.929 1922.54 261.792 2042.85 306.746" stroke="url(#paint18_linear_43_235)" stroke-width="5" stroke-miterlimit="10"/>
<path d="M-30.5593 1251.65C195.499 877.037 382.266 690.826 535.061 603.963C631.325 549.217 711.553 536.312 784.562 536.517C836.066 536.685 881.385 544.648 925.437 556.244C1051.42 589.211 1148.05 644.227 1333.22 609.972C1376.77 601.521 1419.65 588.917 1460.99 572.41C1705.73 476.952 1934.87 261.214 2059.7 299.067" stroke="url(#paint19_linear_43_235)" stroke-width="5" stroke-miterlimit="10"/>
<path d="M-13.9199 1274.24C208.75 905.417 395.573 715.581 549.533 623.169C646.032 565.385 728.406 547.15 801.112 545.207C853.598 543.794 899.042 551.618 942.337 563.546C1066.28 597.688 1163.32 661.779 1349.39 629.054C1392.96 620.978 1435.81 608.287 1476.92 591.291C1722.23 491.823 1947.24 260.805 2076.49 291.379" stroke="url(#paint20_linear_43_235)" stroke-width="5" stroke-miterlimit="10"/>
<path d="M2.62334 1296.87C358.491 707.825 629.151 564.447 817.984 553.847C1024.12 542.272 1113.46 690.264 1365.85 648.259C1661.93 598.95 1937.26 256.342 2093.43 283.602" stroke="url(#paint21_linear_43_235)" stroke-width="5" stroke-miterlimit="10"/>
<defs>
<linearGradient id="paint0_linear_43_235" x1="-363.199" y1="821.84" x2="1087.22" y2="-642.496" gradientUnits="userSpaceOnUse">
<stop stop-color="#931403"/>
<stop offset="1" stop-color="#350D08"/>
</linearGradient>
<linearGradient id="paint1_linear_43_235" x1="-345.449" y1="844.505" x2="1105.15" y2="-620.708" gradientUnits="userSpaceOnUse">
<stop stop-color="#931403"/>
<stop offset="1" stop-color="#350D08"/>
</linearGradient>
<linearGradient id="paint2_linear_43_235" x1="-327.674" y1="867.093" x2="1123.38" y2="-598.677" gradientUnits="userSpaceOnUse">
<stop stop-color="#931403"/>
<stop offset="1" stop-color="#350D08"/>
</linearGradient>
<linearGradient id="paint3_linear_43_235" x1="-309.951" y1="889.609" x2="1141.97" y2="-576.787" gradientUnits="userSpaceOnUse">
<stop stop-color="#931403"/>
<stop offset="1" stop-color="#350D08"/>
</linearGradient>
<linearGradient id="paint4_linear_43_235" x1="-292.227" y1="912.312" x2="1161.51" y2="-554.778" gradientUnits="userSpaceOnUse">
<stop stop-color="#931403"/>
<stop offset="1" stop-color="#350D08"/>
</linearGradient>
<linearGradient id="paint5_linear_43_235" x1="-274.672" y1="934.956" x2="1181.75" y2="-532.582" gradientUnits="userSpaceOnUse">
<stop stop-color="#931403"/>
<stop offset="1" stop-color="#350D08"/>
</linearGradient>
<linearGradient id="paint6_linear_43_235" x1="-256.791" y1="957.565" x2="1202.77" y2="-510.22" gradientUnits="userSpaceOnUse">
<stop stop-color="#931403"/>
<stop offset="1" stop-color="#350D08"/>
</linearGradient>
<linearGradient id="paint7_linear_43_235" x1="-239.099" y1="980.193" x2="1223.69" y2="-487.967" gradientUnits="userSpaceOnUse">
<stop stop-color="#931403"/>
<stop offset="1" stop-color="#350D08"/>
</linearGradient>
<linearGradient id="paint8_linear_43_235" x1="-221.43" y1="1002.82" x2="1246" y2="-465.54" gradientUnits="userSpaceOnUse">
<stop stop-color="#931403"/>
<stop offset="1" stop-color="#350D08"/>
</linearGradient>
<linearGradient id="paint9_linear_43_235" x1="-203.732" y1="1025.41" x2="1268.58" y2="-443.081" gradientUnits="userSpaceOnUse">
<stop stop-color="#931403"/>
<stop offset="1" stop-color="#350D08"/>
</linearGradient>
<linearGradient id="paint10_linear_43_235" x1="-186.089" y1="1048.04" x2="1292.29" y2="-420.415" gradientUnits="userSpaceOnUse">
<stop stop-color="#931403"/>
<stop offset="1" stop-color="#350D08"/>
</linearGradient>
<linearGradient id="paint11_linear_43_235" x1="-168.464" y1="1070.67" x2="1316.87" y2="-397.725" gradientUnits="userSpaceOnUse">
<stop stop-color="#931403"/>
<stop offset="1" stop-color="#350D08"/>
</linearGradient>
<linearGradient id="paint12_linear_43_235" x1="-150.855" y1="1093.29" x2="1342.44" y2="-374.718" gradientUnits="userSpaceOnUse">
<stop stop-color="#931403"/>
<stop offset="1" stop-color="#350D08"/>
</linearGradient>
<linearGradient id="paint13_linear_43_235" x1="-133.341" y1="1115.93" x2="1368.96" y2="-351.63" gradientUnits="userSpaceOnUse">
<stop stop-color="#931403"/>
<stop offset="1" stop-color="#350D08"/>
</linearGradient>
<linearGradient id="paint14_linear_43_235" x1="-115.669" y1="1138.51" x2="1396.97" y2="-328.19" gradientUnits="userSpaceOnUse">
<stop stop-color="#931403"/>
<stop offset="1" stop-color="#350D08"/>
</linearGradient>
<linearGradient id="paint15_linear_43_235" x1="-98.1353" y1="1161.14" x2="1426.33" y2="-304.509" gradientUnits="userSpaceOnUse">
<stop stop-color="#931403"/>
<stop offset="1" stop-color="#350D08"/>
</linearGradient>
<linearGradient id="paint16_linear_43_235" x1="-80.6323" y1="1183.77" x2="1457.2" y2="-280.436" gradientUnits="userSpaceOnUse">
<stop stop-color="#931403"/>
<stop offset="1" stop-color="#350D08"/>
</linearGradient>
<linearGradient id="paint17_linear_43_235" x1="-63.8558" y1="1206.39" x2="1527.09" y2="-248.355" gradientUnits="userSpaceOnUse">
<stop stop-color="#931403"/>
<stop offset="1" stop-color="#350D08"/>
</linearGradient>
<linearGradient id="paint18_linear_43_235" x1="-47.1841" y1="1229.02" x2="1597.36" y2="-213.985" gradientUnits="userSpaceOnUse">
<stop stop-color="#931403"/>
<stop offset="1" stop-color="#350D08"/>
</linearGradient>
<linearGradient id="paint19_linear_43_235" x1="-30.5593" y1="1251.65" x2="1666.73" y2="-177.582" gradientUnits="userSpaceOnUse">
<stop stop-color="#931403"/>
<stop offset="1" stop-color="#350D08"/>
</linearGradient>
<linearGradient id="paint20_linear_43_235" x1="-13.92" y1="1274.24" x2="1733.84" y2="-139.616" gradientUnits="userSpaceOnUse">
<stop stop-color="#931403"/>
<stop offset="1" stop-color="#350D08"/>
</linearGradient>
<linearGradient id="paint21_linear_43_235" x1="2.62327" y1="1296.87" x2="1798.79" y2="-100.463" gradientUnits="userSpaceOnUse">
<stop stop-color="#931403"/>
<stop offset="1" stop-color="#350D08"/>
</linearGradient>
</defs>
</svg>
